<svg xmlns="http://www.w3.org/2000/svg" data-name="图层 1" viewBox="0 0 4000 3000"><defs><clipPath id="a"><path fill="#1a80fd" stroke="#000" stroke-miterlimit="10" stroke-width="2.6" d="M2756.53,2742.58l-1149.14,3.12a165.72,165.72,0,0,1-166.16-165.27l-5-1858.32A165.71,165.71,0,0,1,1601.46,556l128.63-.35,1020.5-2.77A165.71,165.71,0,0,1,2916.75,718.1l5,1858.32A165.71,165.71,0,0,1,2756.53,2742.58Z"/></clipPath><clipPath id="b"><rect width="709.78" height="224.41" x="1821.36" y="511.59" fill="#fdd504" stroke="#000" stroke-miterlimit="10" stroke-width="2.6" rx="36.9" transform="rotate(-.16 2111.94 604.555)"/></clipPath><clipPath id="c"><path fill="#e43334" stroke="#000" stroke-miterlimit="10" stroke-width="2.6" d="M3044,1135.3h-20.48a50.56,50.56,0,0,1-50.57-50.56v-45.32h121.61v45.32A50.56,50.56,0,0,1,3044,1135.3Z"/></clipPath><clipPath id="d"><path fill="#fdd504" stroke="#000" stroke-miterlimit="10" stroke-width="2.6" d="M3153.05,878.65a119.26,119.26,0,1,0-222.23,60.22c19.62,33.45,30.47,71.3,30.47,110.08h0a3.92,3.92,0,0,0,3.92,3.92h137.15a3.92,3.92,0,0,0,3.92-3.92h0A211.16,211.16,0,0,1,3136.05,940,118.69,118.69,0,0,0,3153.05,878.65Z"/></clipPath><clipPath id="e"><path fill="#fff" stroke="#000" stroke-miterlimit="10" stroke-width="2.6" d="M2701.61,1153.89l-28.81-23.06,14.4-33.6S2829,995.52,3004.8,1110.3c0,0,143.11-123.49,336.35,22.53l9.18,63.62-591.08-70.39Z"/></clipPath><clipPath id="f"><rect width="845.95" height="153.89" x="910.4" y="2145.92" fill="#fff" stroke="#000" stroke-miterlimit="10" stroke-width="2.6"/></clipPath><clipPath id="g"><rect width="845.95" height="176.84" x="812.06" y="2339.35" fill="#fff" stroke="#000" stroke-miterlimit="10" stroke-width="2.6"/></clipPath><clipPath id="h"><rect width="845.95" height="176.84" x="910.4" y="2554.93" fill="#fff" stroke="#000" stroke-miterlimit="10" stroke-width="2.6"/></clipPath><clipPath id="i"><path fill="#f9c1bb" stroke="#000" stroke-miterlimit="10" stroke-width="2.6" d="M1723.1,1426.61c4.94-.68-3.57,43-3.57,43s13.64-46,25.66-43.3-10.25,32.27-12.32,37.58,1.69,20.42,4.7,17.16,8.36-20.93,12.07-20.07,14.15-2.56,4,14.22-3.94,46.57-23,65.89c0,0-70.1,203.67-119.68,199.76s-247.25-55.15-247.25-55.15l56.69-89.63,181.17,37.4s79.67-64,95.45-110.57c0,0-2.46-36.39-3.58-44.94S1710.13,1428.39,1723.1,1426.61Z"/></clipPath><clipPath id="j"><polygon fill="#fff" stroke="#000" stroke-miterlimit="10" stroke-width="2.6" points="1542.74 1609.71 1497.52 1718.6 1363.69 1685.71 1404.94 1583.56 1542.74 1609.71"/></clipPath><clipPath id="k"><path fill="#2f387e" stroke="#000" stroke-miterlimit="10" stroke-width="2.6" d="M1828.57,1437.6l-48.79,3-112.28,6.89c5.18,4.86,8.69,14.35,8.69,25.26s-3.51,20.4-8.69,25.26l112.28,6.89,48.79,3c4.66-9.46,7.49-21.73,7.49-35.15S1833.23,1447.05,1828.57,1437.6Z"/></clipPath><clipPath id="l"><path fill="#f9c1bb" stroke="#000" stroke-miterlimit="10" stroke-width="2.6" d="M1399.81,1525.51c-2.67,18.11,44.08,89.54,44.08,89.54l-109.51-8s30.84-95.49,12.53-121.23c-9.11-12.82,52.9,39.68,52.9,39.68Z"/></clipPath><clipPath id="m"><path fill="#f9c1bb" stroke="#000" stroke-miterlimit="10" stroke-width="2.6" d="M1531.66,1426.61c15.21-7,19.16,44.79,19.16,44.79s12.69-28.34,26.78-18c0,0,14.13-3.06,18.83-.2,0,0-21.56,7.87-8.22,24.89s30,19,28.47,40,54.38,224.54-5.74,230.26-232.22-54.74-232.22-54.74l80.42-67,9.62-8.17s97.84,58.82,100.1,56.37,21-131.19,13.52-145.66-39.17-23.32-45.84-51.09C1532,1459.09,1531.66,1426.61,1531.66,1426.61Z"/></clipPath><clipPath id="n"><path fill="#f9c1bb" stroke="#000" stroke-miterlimit="10" stroke-width="2.6" d="M1688.34,2316.08c-6,25.34-8.43,60.16-32.31,78.62-28.56,22.07,17.28,33.06,45.09,75.15s90.18,43.58,58.62,18-48.1-81.16-38.33-115S1688.34,2316.08,1688.34,2316.08Z"/></clipPath><clipPath id="o"><path fill="#fdd504" stroke="#000" stroke-miterlimit="10" stroke-width="2.6" d="M1737.61,2378.31l-73.54-25.46s19.77-208.4,63.73-267c0,0-357.34,96.94-404.69,13.52s-27-146.54-27-146.54,552.35-40.58,588.43,33.82S1737.61,2378.31,1737.61,2378.31Z"/></clipPath><clipPath id="p"><path fill="#f9c1bb" stroke="#000" stroke-miterlimit="10" stroke-width="2.6" d="M1600.65,1958.14c4.1,30,41.65,106,25,135-19.92,34.76,30.68,30,75.57,66s108.35,14.75,66.3-1.73-81-71.51-84.72-112.27S1600.65,1958.14,1600.65,1958.14Z"/></clipPath><clipPath id="q"><path fill="#fdd504" stroke="#000" stroke-miterlimit="10" stroke-width="2.6" d="M1707.72,2029.47l-91.52,26.3s-42-95.16-45-156.79c0,0-52.57,226.64-181.1,231.94-164,6.76-198.38-219.48-198.38-219.48l203.51-15,1.5,31.56s146.88-260.77,210.42-250.25S1707.72,2029.47,1707.72,2029.47Z"/></clipPath><clipPath id="r"><path fill="#fff" stroke="#000" stroke-miterlimit="10" stroke-width="2.6" d="M1523.31,1640.22l-40.58,105.13-41.51-6.51s.27,84.65-13.26,149.62c0,0-115.58,135-244.71,101.14,0,0-30.67-354.85,160.21-416.48l72.84,15.21Z"/></clipPath><clipPath id="s"><path fill="#1a80fd" stroke="#000" stroke-miterlimit="10" stroke-width="2.6" d="M768.49,1548.49l-60.3,91.73S897.42,1553,1130.58,1613s304.89-18.87,304.89-18.87,2.7-20.57-16.83-21.13c0,0-11.93,38.21-194.94,11S991.33,1512.84,768.49,1548.49Z"/></clipPath><clipPath id="t"><path fill="#1ab995" stroke="#000" stroke-miterlimit="10" stroke-width="2.6" d="M2969.62,1751.3c-112,169-185.61,553.31-67.21,699.93l117.9,7.18s77.93-176.46-8.47-363.17C2912.82,1881.27,2969.62,1751.3,2969.62,1751.3Z"/></clipPath><clipPath id="u"><path fill="#1ab995" stroke="#000" stroke-miterlimit="10" stroke-width="2.6" d="M2786.14,2036.24s-89.61,283.28,17.07,427.41h138.25S2762.67,2147.23,2786.14,2036.24Z"/></clipPath><clipPath id="v"><path fill="#1ab995" stroke="#000" stroke-miterlimit="10" stroke-width="2.6" d="M3035.76,1948.44s-4.73,400.9-70.87,502.79h98.6S3155.23,2162.14,3035.76,1948.44Z"/></clipPath><clipPath id="w"><path fill="#f08059" stroke="#000" stroke-miterlimit="10" stroke-width="2.6" d="M3138.08,2484.45l-196.55-9.31h-.13l-196.57,9.31s-20.32,219.22,79.36,257.62h234.54C3158.41,2703.67,3138.08,2484.45,3138.08,2484.45Z"/></clipPath></defs><path fill="#7a24ea" d="M1051.21,2025c87.84,54.32,200.4,88.9,324.73,97,.06.47.1.94.16,1.41,42.93,329.46,464,546.21,940.37,484.13,453.76-59.13,794.12-349.86,788.39-662,191-98.84,308.82-262,287-429.35-13.86-106.34-81.76-196.56-183.26-260.19,50.93-90.16,73.63-188,60.74-286.9C3226.42,639.64,2805.4,422.89,2329,485c-302.09,39.36-553.87,181.39-686.78,364-117-22.32-245.28-26.66-377.83-9.39-476.43,62.08-827.85,379.48-784.92,708.93C510.74,1788.75,743,1969,1051.21,2025Z" opacity=".1"/><path fill="#1ab995" stroke="#000" stroke-miterlimit="10" stroke-width="2.6" d="M1265.62,719.8c-8.65-34.37-55-80.75-89.4-89.39a1.47,1.47,0,0,1,0-2.84c34.37-8.64,80.75-55,89.4-89.39a1.46,1.46,0,0,1,2.83,0c8.65,34.37,55,80.75,89.4,89.39a1.47,1.47,0,0,1,0,2.84c-34.37,8.64-80.75,55-89.4,89.39A1.46,1.46,0,0,1,1265.62,719.8Z"/><path fill="#fcb006" stroke="#000" stroke-miterlimit="10" stroke-width="2.6" d="M3097.88,1666c-5.1-20.28-32.48-47.65-52.76-52.76a.86.86,0,0,1,0-1.67c20.28-5.1,47.66-32.47,52.76-52.76a.86.86,0,0,1,1.67,0c5.1,20.29,32.48,47.66,52.76,52.76a.86.86,0,0,1,0,1.67c-20.28,5.11-47.66,32.48-52.76,52.76A.86.86,0,0,1,3097.88,1666Z"/><path fill="#fff" stroke="#000" stroke-miterlimit="10" stroke-width="2.6" d="M2723.89,2615.33l-1070.65,2.91a92.06,92.06,0,0,1-92.31-91.81l-3.75-1383.16-1-384.43a92.07,92.07,0,0,1,91.81-92.31l1070.65-2.9a92.06,92.06,0,0,1,92.31,91.81L2815.69,2523A92,92,0,0,1,2723.89,2615.33Z"/><circle cx="1803.55" cy="991.33" r="101.04" fill="#fff" stroke="#000" stroke-miterlimit="10" stroke-width="2.6"/><path fill="#fff" stroke="#000" stroke-miterlimit="10" stroke-width="2.6" d="M2542.22,918.37l-567.37,1.54a24.92,24.92,0,1,0,.14,49.83l567.36-1.54a24.92,24.92,0,1,0-.13-49.83Z"/><rect width="396.53" height="49.83" x="1950.25" y="1011.53" fill="#fff" stroke="#000" stroke-miterlimit="10" stroke-width="2.6" rx="19.97" transform="rotate(-.16 2086.314 1005.59)"/><circle cx="1804.6" cy="1379.5" r="101.04" fill="#fff" stroke="#000" stroke-miterlimit="10" stroke-width="2.6"/><path fill="#fff" stroke="#000" stroke-miterlimit="10" stroke-width="2.6" d="M2543.27,1306.54l-567.37,1.54a24.92,24.92,0,0,0,.14,49.83l567.37-1.54a24.92,24.92,0,1,0-.14-49.83Z"/><rect width="396.53" height="49.83" x="1951.3" y="1399.7" fill="#fff" stroke="#000" stroke-miterlimit="10" stroke-width="2.6" rx="19.97" transform="rotate(-.16 2089.365 1385.18)"/><circle cx="1805.65" cy="1767.67" r="101.04" fill="#fff" stroke="#000" stroke-miterlimit="10" stroke-width="2.6"/><path fill="#fff" stroke="#000" stroke-miterlimit="10" stroke-width="2.6" d="M2544.33,1694.71,1977,1696.25a24.92,24.92,0,0,0,.13,49.83l567.37-1.54a24.92,24.92,0,1,0-.13-49.83Z"/><rect width="396.53" height="49.83" x="1952.36" y="1787.87" fill="#fff" stroke="#000" stroke-miterlimit="10" stroke-width="2.6" rx="19.97" transform="rotate(-.16 2088.84 1761.183)"/><circle cx="1806.7" cy="2155.84" r="101.04" fill="#fff" stroke="#000" stroke-miterlimit="10" stroke-width="2.6"/><path fill="#fff" stroke="#000" stroke-miterlimit="10" stroke-width="2.6" d="M2545.38,2082.88,1978,2084.42a24.92,24.92,0,0,0,.13,49.83l567.37-1.54a24.92,24.92,0,1,0-.13-49.83Z"/><rect width="396.53" height="49.83" x="1953.41" y="2176.04" fill="#fff" stroke="#000" stroke-miterlimit="10" stroke-width="2.6" rx="19.97" transform="rotate(-.16 2088.315 2137.186)"/><path fill="#1a80fd" stroke="#000" stroke-miterlimit="10" stroke-width="2.6" d="M1759.23,1361.07h0a11.32,11.32,0,0,1,12.13,3.69l18.06,22.21a4.51,4.51,0,0,0,6.75.29l48-49.76a6.7,6.7,0,0,1,9.89.26h0a6.7,6.7,0,0,1,.11,8.65l-55.22,67a11.71,11.71,0,0,1-18.23-.2l-27-34.27A11.34,11.34,0,0,1,1759.23,1361.07Z"/><path fill="#fcb006" stroke="#000" stroke-miterlimit="10" stroke-width="2.6" d="M2287.14,426.65a119,119,0,0,0,12.07-59.16c-3.4-61.26-54.37-111.16-115.69-113.12a119.61,119.61,0,0,0-111.24,172.86l-58,.16a46.7,46.7,0,0,0-46.57,46.83l.26,98.36,424.33-1.15-.27-98.37a46.7,46.7,0,0,0-46.83-46.57Zm-107.69-95.43a42.9,42.9,0,1,1-42.78,43A42.92,42.92,0,0,1,2179.45,331.22Z"/><path fill="#fdd504" stroke="#000" stroke-miterlimit="10" stroke-width="2.6" d="M2287.14,431.08a119,119,0,0,0,12.07-59.16c-3.4-61.26-54.37-111.16-115.69-113.13a119.62,119.62,0,0,0-111.24,172.87l-58,.16a46.69,46.69,0,0,0-46.57,46.82l.26,98.37,424.33-1.15-.27-98.37a46.7,46.7,0,0,0-46.83-46.57Zm-107.69-95.43a42.9,42.9,0,1,1-42.78,43A42.91,42.91,0,0,1,2179.45,335.65Z"/><path fill="#1a80fd" d="M2756.53,2742.58l-1149.14,3.12a165.72,165.72,0,0,1-166.16-165.27l-5-1858.32A165.71,165.71,0,0,1,1601.46,556l128.63-.35,1020.5-2.77A165.71,165.71,0,0,1,2916.75,718.1l5,1858.32A165.71,165.71,0,0,1,2756.53,2742.58Z"/><g clip-path="url(#a)"><path fill="#1d62fc" d="M1316.2,2637.08c1654.88,120.71,1598.74,156.88,1584-929.21S3153,2745.7,3153,2745.7L2976.15,2940,1463,2828.64,1359,2778"/></g><path fill="none" stroke="#000" stroke-miterlimit="10" stroke-width="2.6" d="M2756.53,2742.58l-1149.14,3.12a165.72,165.72,0,0,1-166.16-165.27l-5-1858.32A165.71,165.71,0,0,1,1601.46,556l128.63-.35,1020.5-2.77A165.71,165.71,0,0,1,2916.75,718.1l5,1858.32A165.71,165.71,0,0,1,2756.53,2742.58Z"/><path fill="#fff" stroke="#000" stroke-miterlimit="10" stroke-width="2.6" d="M2723.89,2628.49l-1070.65,2.91a92.06,92.06,0,0,1-92.31-91.81l-3.75-1383.16-1-384.43a92.07,92.07,0,0,1,91.81-92.31l1070.65-2.9a92.06,92.06,0,0,1,92.31,91.81l4.79,1767.58A92,92,0,0,1,2723.89,2628.49Z"/><circle cx="1803.55" cy="1004.49" r="101.04" fill="#d6dcf2"/><path fill="#d6dcf2" d="M2542.22,931.53l-567.37,1.54a24.92,24.92,0,1,0,.14,49.83l567.36-1.54a24.92,24.92,0,1,0-.13-49.83Z"/><rect width="396.53" height="49.83" x="1950.25" y="1024.69" fill="#d6dcf2" rx="19.97" transform="rotate(-.16 2086.294 1019.914)"/><circle cx="1804.6" cy="1392.66" r="101.04" fill="#1ab995" stroke="#000" stroke-miterlimit="10" stroke-width="2.6"/><path fill="#1ab995" stroke="#000" stroke-miterlimit="10" stroke-width="2.6" d="M2543.27,1319.7l-567.37,1.54a24.92,24.92,0,0,0,.14,49.83l567.37-1.54a24.92,24.92,0,1,0-.14-49.83Z"/><rect width="396.53" height="49.83" x="1951.3" y="1412.86" fill="#1ab995" stroke="#000" stroke-miterlimit="10" stroke-width="2.6" rx="19.97" transform="rotate(-.16 2089.35 1395.923)"/><circle cx="1805.65" cy="1780.83" r="101.04" fill="#d6dcf2"/><path fill="#d6dcf2" d="M2544.33,1707.87,1977,1709.41a24.92,24.92,0,0,0,.13,49.83l567.37-1.54a24.92,24.92,0,1,0-.13-49.83Z"/><rect width="396.53" height="49.83" x="1952.36" y="1801.03" fill="#d6dcf2" rx="19.97" transform="rotate(-.16 2088.825 1771.926)"/><circle cx="1806.7" cy="2169.01" r="101.04" fill="#d6dcf2"/><path fill="#d6dcf2" d="M2545.38,2096,1978,2097.58a24.92,24.92,0,0,0,.13,49.83l567.37-1.54a24.92,24.92,0,1,0-.13-49.83Z"/><rect width="396.53" height="49.83" x="1953.41" y="2189.2" fill="#d6dcf2" rx="19.97" transform="rotate(-.16 2088.295 2151.51)"/><rect width="709.78" height="224.41" x="1821.36" y="511.59" fill="#fdd504" rx="36.9" transform="rotate(-.16 2111.94 604.555)"/><g clip-path="url(#b)"><rect width="709.78" height="224.41" x="1821.36" y="545.6" fill="#fcb006" rx="36.9" transform="rotate(-.16 2115.471 640.37)"/></g><rect width="709.78" height="224.41" x="1821.36" y="511.59" fill="none" stroke="#000" stroke-miterlimit="10" stroke-width="2.6" rx="36.9" transform="rotate(-.16 2111.94 604.555)"/><path fill="none" stroke="#000" stroke-miterlimit="10" stroke-width="2.6" d="M2580.12,2392.09l-71.1,60.43"/><path fill="none" stroke="#000" stroke-miterlimit="10" stroke-width="2.6" d="M2012,618.19,1970.27,660"/><path fill="#e43334" stroke="#000" stroke-miterlimit="10" stroke-width="2.6" d="M2992.18,1058.72h83.21a0,0,0,0,1,0,0V1113a41.61,41.61,0,0,1-41.61,41.61h0a41.61,41.61,0,0,1-41.61-41.61v-54.27A0,0,0,0,1,2992.18,1058.72Z"/><path fill="#e43334" d="M3044,1135.3h-20.48a50.56,50.56,0,0,1-50.57-50.56v-45.32h121.61v45.32A50.56,50.56,0,0,1,3044,1135.3Z"/><g clip-path="url(#c)"><path fill="#c11f27" d="M2984.14,1139.79c-31.89-95.66,54.84-77.33,127.54-81.07s-44.64-27.34-44.64-27.34l-94.06,8-9.89,42.34,5.27,50.37"/></g><path fill="none" stroke="#000" stroke-miterlimit="10" stroke-width="2.6" d="M3044,1135.3h-20.48a50.56,50.56,0,0,1-50.57-50.56v-45.32h121.61v45.32A50.56,50.56,0,0,1,3044,1135.3Z"/><path fill="#fdd504" d="M3153.05,878.65a119.26,119.26,0,1,0-222.23,60.22c19.62,33.45,30.47,71.3,30.47,110.08h0a3.92,3.92,0,0,0,3.92,3.92h137.15a3.92,3.92,0,0,0,3.92-3.92h0A211.16,211.16,0,0,1,3136.05,940,118.69,118.69,0,0,0,3153.05,878.65Z"/><g clip-path="url(#d)"><path fill="#fcb006" d="M2953.53,777.57c-126.27,137.75,76.52,286.75,181.1,274.1s-150.49,88.12-150.49,88.12l-108.26-52.43-41-195.11"/></g><path fill="none" stroke="#000" stroke-miterlimit="10" stroke-width="2.6" d="M3153.05,878.65a119.26,119.26,0,1,0-222.23,60.22c19.62,33.45,30.47,71.3,30.47,110.08h0a3.92,3.92,0,0,0,3.92,3.92h137.15a3.92,3.92,0,0,0,3.92-3.92h0A211.16,211.16,0,0,1,3136.05,940,118.69,118.69,0,0,0,3153.05,878.65Z"/><rect width="130.85" height="18.71" x="2968.36" y="1068.65" fill="#fff" stroke="#000" stroke-miterlimit="10" stroke-width="2.6" rx="9.35"/><rect width="130.85" height="18.71" x="2968.36" y="1097.3" fill="#fff" stroke="#000" stroke-miterlimit="10" stroke-width="2.6" rx="9.35"/><rect width="26.56" height="110.85" x="3020.51" y="601.99" fill="#fcb006" stroke="#000" stroke-miterlimit="10" stroke-width="2.6" rx="13.28"/><rect width="26.56" height="110.85" x="2807.17" y="815.33" fill="#fcb006" stroke="#000" stroke-miterlimit="10" stroke-width="2.6" rx="13.28" transform="rotate(-90 2820.45 870.76)"/><rect width="26.56" height="110.85" x="3233.84" y="815.33" fill="#fcb006" stroke="#000" stroke-miterlimit="10" stroke-width="2.6" rx="13.28" transform="rotate(-90 3247.125 870.755)"/><rect width="26.56" height="110.85" x="2869.65" y="664.48" fill="#fcb006" stroke="#000" stroke-miterlimit="10" stroke-width="2.6" rx="13.28" transform="rotate(-45 2882.924 719.904)"/><rect width="26.56" height="110.85" x="3171.36" y="664.48" fill="#fcb006" stroke="#000" stroke-miterlimit="10" stroke-width="2.6" rx="13.28" transform="rotate(-135 3184.643 719.9)"/><path fill="none" stroke="#000" stroke-miterlimit="10" stroke-width="2.6" d="M3103.27,875.55a305.13,305.13,0,0,1-41.06,38"/><path fill="#fff" stroke="#000" stroke-miterlimit="10" stroke-width="2.6" d="M3357.39,1256.32l14.92,25.92,5-7.56s-20.67-130.63-36.2-141.85-37.05,14.52-37.05,14.52l16.71,60.7Z"/><path fill="#fff" d="M2701.61,1153.89l-28.81-23.06,14.4-33.6S2829,995.52,3004.8,1110.3c0,0,143.11-123.49,336.35,22.53l9.18,63.62-591.08-70.39Z"/><g clip-path="url(#e)"><path fill="#d6dcf2" d="M2665.73,1107s165.09-71.92,281.14-8.71C2946.87,1098.32,2845.89,1040.92,2665.73,1107Z"/><path fill="#d6dcf2" d="M2672.8,1117.42c129.86-45.4,206.51-34.36,295.87,6,0,0-120.6-67.72-295.87-6Z"/><path fill="#d6dcf2" d="M3050.39,1104.6s134.4-71.08,303.12,53.94h-6S3202.59,1047.68,3050.39,1104.6Z"/></g><path fill="none" stroke="#000" stroke-miterlimit="10" stroke-width="2.6" d="M2701.61,1153.89l-28.81-23.06,14.4-33.6S2829,995.52,3004.8,1110.3c0,0,143.11-123.49,336.35,22.53l9.18,63.62-591.08-70.39Z"/><polygon fill="#fcb006" stroke="#000" stroke-miterlimit="10" stroke-width="2.6" points="2949.59 1153.89 2977.37 1130.83 3004.8 1110.31 3031.68 1131.37 3040.59 1172.05 2949.59 1153.89"/><path fill="#fcb006" stroke="#000" stroke-miterlimit="10" stroke-width="2.6" d="M2701.61,1153.89l-31.19-16.78,2.38-6.28s121-64.48,304.57,0c0,0,23.79,19.07,54.31.54,0,0,159.33-47.9,324.24,54.53l2.11,13.75-48.12,15.27-500.17-46.13Z"/><path fill="#fdd504" d="M2670.42,1137.11s109.89,66.89,185.77,134.13c0,0,111.67-46.12,218.61,5.73,0,0,137.45-68.26,300,9.14l-17.41-90.34s-158.58-85.91-316.48-48.42c1.37,2.64-18,22.67-33.2,28.43,0,0-27.91-22.52-31.08-27.82C2930.78,1128.5,2826.55,1096.32,2670.42,1137.11Z"/><path fill="none" stroke="#000" stroke-miterlimit="10" stroke-width="2.6" d="M2670.42,1137.11s109.89,66.89,185.77,134.13c0,0,111.67-46.12,218.61,5.73,0,0,137.45-68.26,300,9.14l-17.41-90.34s-158.58-85.91-316.48-48.42c1.37,2.64-18,22.67-33.2,28.43,0,0-27.91-22.52-31.08-27.82C2930.78,1128.5,2826.55,1096.32,2670.42,1137.11Z"/><path fill="#fcb006" stroke="#000" stroke-miterlimit="10" stroke-width="2.6" d="M2976.63,1148l68.13,114s25.32,38.42,57.08,2.35l-60.93-117S3002.82,1176.94,2976.63,1148Z"/><path fill="none" stroke="#000" stroke-miterlimit="10" stroke-width="2.6" d="M2886.32,1145.53l-25.11,20.89"/><path fill="none" stroke="#000" stroke-miterlimit="10" stroke-width="2.6" d="M3187.49,1227.36l-11.91,6.8"/><path fill="#0fa379" stroke="#000" stroke-miterlimit="10" stroke-width="2.6" d="M644.93,2128.36s30.74-2.8,77,1.86a698.77,698.77,0,0,1,4.45,110.91c18.89-39.66,28.17-78.34,32.73-105.87,47.74,8.11,105,24.35,160.69,56.17,9.57,75.16,6.42,138.49,6.42,138.49,18.24-41.09,28.22-81.33,33.68-112.48,71.45,52.38,135.6,134.83,167.28,264.47,30.18,123.56,25.24,192.64,4.47,229.46C842.23,2556.33,644.93,2128.36,644.93,2128.36Z"/><path fill="#1ab995" stroke="#000" stroke-miterlimit="10" stroke-width="2.6" d="M644.93,2128.36s197.3,428,486.73,583c-44.59,79.08-162.24,9.18-162.24,9.18-71,7.45-154.14-26.7-220.5-98.15a297.2,297.2,0,0,0,37.64-38.85s-27.07,7.34-64.25,6.88a430.72,430.72,0,0,1-45.08-75.5c5.84-3,11.79-6.34,17.86-10.1a209,209,0,0,1-24.7-5.28c-17.36-40.82-30.19-86.94-36.76-138.17a232.35,232.35,0,0,0,81.91-14.59s-39.94-8.25-86-31.13C626.55,2258.67,631,2196.14,644.93,2128.36Z"/><path fill="#0fa379" stroke="#000" stroke-miterlimit="10" stroke-width="2.6" d="M1973.87,2419.89s-24.24-1.48-60.74,1a248.39,248.39,0,0,0-3.51,58.61,165.61,165.61,0,0,1-25.81-55.94c-37.65,4.28-82.79,12.86-126.74,29.67a312.85,312.85,0,0,0-5.07,73.18,199.55,199.55,0,0,1-26.56-59.43c-56.35,27.68-107,71.24-131.93,139.74C1569.7,2672,1573.6,2708.49,1590,2728,1818.26,2646,1973.87,2419.89,1973.87,2419.89Z"/><path fill="#1ab995" stroke="#000" stroke-miterlimit="10" stroke-width="2.6" d="M1973.87,2419.89S1818.26,2646,1590,2728c35.18,41.79,128,4.85,128,4.85,56,3.94,121.57-14.11,173.91-51.86a212.3,212.3,0,0,1-29.69-20.53,300,300,0,0,0,50.68,3.64,232.7,232.7,0,0,0,35.55-39.9c-4.6-1.59-9.29-3.35-14.08-5.33,0,0,7.59-.66,19.48-2.79a208.75,208.75,0,0,0,29-73,266,266,0,0,1-64.6-7.71,425,425,0,0,0,67.84-16.45C1988.36,2488.74,1984.83,2455.71,1973.87,2419.89Z"/><path fill="#1ab995" stroke="#000" stroke-miterlimit="10" stroke-width="2.6" d="M877.37,1794.34s32.08-2,80.38,1.3a328.93,328.93,0,0,1,4.64,77.54,219.16,219.16,0,0,0,34.15-74c49.82,5.66,109.55,17,167.7,39.26,10,52.55,6.71,96.82,6.71,96.82a263.62,263.62,0,0,0,35.14-78.63c74.57,36.62,141.52,94.26,174.58,184.9,31.5,86.38,26.34,134.68,4.67,160.43C1083.28,2093.55,877.37,1794.34,877.37,1794.34Z"/><path fill="#0fa379" stroke="#000" stroke-miterlimit="10" stroke-width="2.6" d="M877.37,1794.34s205.91,299.21,508,407.61c-46.54,55.28-169.32,6.42-169.32,6.42-74.12,5.2-160.86-18.67-230.13-68.63a279.84,279.84,0,0,0,39.29-27.16s-28.25,5.13-67.05,4.81a307.41,307.41,0,0,1-47-52.78c6.09-2.11,12.31-4.44,18.64-7.07,0,0-10-.86-25.78-3.69a276.39,276.39,0,0,1-38.36-96.59,351.83,351.83,0,0,0,85.48-10.21,562.1,562.1,0,0,1-89.76-21.77C858.2,1885.44,862.86,1841.73,877.37,1794.34Z"/><rect width="845.95" height="153.89" x="910.4" y="2145.92" fill="#fff"/><g clip-path="url(#f)"><polygon fill="#d6dcf2" points="1769.78 2197.62 1025.14 2200 1783.28 2207.14 1769.78 2197.62"/><polygon fill="#d6dcf2" points="1825.01 2261.78 1080.37 2264.16 1838.52 2271.3 1825.01 2261.78"/></g><rect width="845.95" height="153.89" x="910.4" y="2145.92" fill="none" stroke="#000" stroke-miterlimit="10" stroke-width="2.6"/><path fill="#fdd504" stroke="#000" stroke-miterlimit="10" stroke-width="2.6" d="M884.82,2145.92a18.39,18.39,0,0,1,18.4-18.39h864.46c10.07,0,18.86,7.76,19.16,17.83a18.4,18.4,0,0,1-18.39,19H936.56a21.1,21.1,0,0,0-21.1,21.09v74.92a21.1,21.1,0,0,0,21.1,21.09h831.12c10.07,0,18.85,7.76,19.16,17.83a18.4,18.4,0,0,1-18.39,19H903.22a18.39,18.39,0,0,1-18.4-18.39V2148.15c0-.38,0-.74.06-1.11S884.82,2146.3,884.82,2145.92Z"/><rect width="845.95" height="176.84" x="812.06" y="2339.35" fill="#fff"/><g clip-path="url(#g)"><polygon fill="#d6dcf2" points="1671.44 2398.76 926.8 2401.5 1684.94 2409.7 1671.44 2398.76"/><polygon fill="#d6dcf2" points="1726.67 2472.5 982.03 2475.23 1740.18 2483.43 1726.67 2472.5"/></g><rect width="845.95" height="176.84" x="812.06" y="2339.35" fill="none" stroke="#000" stroke-miterlimit="10" stroke-width="2.6"/><path fill="#2f387e" stroke="#000" stroke-miterlimit="10" stroke-width="2.6" d="M786.48,2339.35c0-11.67,8.24-21.14,18.4-21.14h864.46c10.07,0,18.85,8.92,19.16,20.49.31,12-8,21.8-18.39,21.8H838.21c-11.64,0-21.09,10.85-21.09,24.23v86.09c0,13.39,9.45,24.24,21.09,24.24h831.13c10.07,0,18.85,8.92,19.16,20.49.31,12-8,21.79-18.39,21.79H804.88c-10.16,0-18.4-9.46-18.4-21.14V2341.91c0-.43,0-.85.06-1.27S786.48,2339.79,786.48,2339.35Z"/><rect width="845.95" height="176.84" x="910.4" y="2554.93" fill="#fff"/><g clip-path="url(#h)"><polygon fill="#d6dcf2" points="1769.78 2614.34 1025.14 2617.07 1783.28 2625.27 1769.78 2614.34"/><polygon fill="#d6dcf2" points="1825.01 2688.07 1080.37 2690.8 1838.52 2699 1825.01 2688.07"/></g><rect width="845.95" height="176.84" x="910.4" y="2554.93" fill="none" stroke="#000" stroke-miterlimit="10" stroke-width="2.6"/><path fill="#1a80fd" stroke="#000" stroke-miterlimit="10" stroke-width="2.6" d="M884.82,2554.93c0-11.68,8.24-21.14,18.4-21.14h864.46c10.07,0,18.86,8.92,19.16,20.49.31,12-8,21.79-18.39,21.79H936.56c-11.65,0-21.1,10.85-21.1,24.24v86.08c0,13.39,9.45,24.24,21.1,24.24h831.12c10.07,0,18.85,8.92,19.16,20.49.31,12-8,21.79-18.39,21.79H903.22c-10.16,0-18.4-9.46-18.4-21.14V2557.49c0-.43,0-.86.06-1.28S884.82,2555.36,884.82,2554.93Z"/><path fill="none" stroke="#000" stroke-miterlimit="10" stroke-width="2.6" d="M1076.19,2049.3a35.58,35.58,0,0,1-15.8,3.91"/><path fill="none" stroke="#000" stroke-miterlimit="10" stroke-width="2.6" d="M821.64,2209.15a165.45,165.45,0,0,1-6.7,39.25"/><path fill="none" stroke="#000" stroke-miterlimit="10" stroke-width="2.6" d="M857.29,2592.19a23.66,23.66,0,0,1-20.67,13.46"/><path fill="none" stroke="#000" stroke-miterlimit="10" stroke-width="2.6" d="M1821.71,2490.59a324.54,324.54,0,0,0-7.61,41.84"/><path fill="none" stroke="#000" stroke-miterlimit="10" stroke-width="2.6" d="M1798.83,2669.55a108.28,108.28,0,0,0,25.42,4.72"/><path fill="none" stroke="#000" stroke-miterlimit="10" stroke-width="2.6" d="M1134.54,2734.93l-38,2.56"/><path fill="none" stroke="#000" stroke-miterlimit="10" stroke-width="2.6" d="M954.72,2433.05a193.34,193.34,0,0,0,58.17,12.44"/><path fill="none" stroke="#000" stroke-miterlimit="10" stroke-width="2.6" d="M1357.53,2233.82l-27.85-7.77"/><path fill="#f9c1bb" d="M1723.1,1426.61c4.94-.68-3.57,43-3.57,43s13.64-46,25.66-43.3-10.25,32.27-12.32,37.58,1.69,20.42,4.7,17.16,8.36-20.93,12.07-20.07,14.15-2.56,4,14.22-3.94,46.57-23,65.89c0,0-70.1,203.67-119.68,199.76s-247.25-55.15-247.25-55.15l56.69-89.63,181.17,37.4s79.67-64,95.45-110.57c0,0-2.46-36.39-3.58-44.94S1710.13,1428.39,1723.1,1426.61Z"/><g clip-path="url(#i)"><path fill="#ed707b" d="M1534.3,1615.05c8.45,10.08-4.22,76.43,2.12,100.52s-47.34-23.25-47.34-23.25l24.09-68"/></g><path fill="none" stroke="#000" stroke-miterlimit="10" stroke-width="2.6" d="M1723.1,1426.61c4.94-.68-3.57,43-3.57,43s13.64-46,25.66-43.3-10.25,32.27-12.32,37.58,1.69,20.42,4.7,17.16,8.36-20.93,12.07-20.07,14.15-2.56,4,14.22-3.94,46.57-23,65.89c0,0-70.1,203.67-119.68,199.76s-247.25-55.15-247.25-55.15l56.69-89.63,181.17,37.4s79.67-64,95.45-110.57c0,0-2.46-36.39-3.58-44.94S1710.13,1428.39,1723.1,1426.61Z"/><polygon fill="#fff" points="1542.74 1609.71 1497.52 1718.6 1363.69 1685.71 1404.94 1583.56 1542.74 1609.71"/><g clip-path="url(#j)"><polygon fill="#1a80fd" stroke="#000" stroke-miterlimit="10" stroke-width="2.6" points="1523.31 1587.67 1453.22 1774.99 1549.88 1763.42 1561.71 1587.35 1523.31 1587.67"/></g><polygon fill="none" stroke="#000" stroke-miterlimit="10" stroke-width="2.6" points="1542.74 1609.71 1497.52 1718.6 1363.69 1685.71 1404.94 1583.56 1542.74 1609.71"/><ellipse cx="1830.1" cy="1472.74" fill="#fdd504" stroke="#000" stroke-miterlimit="10" stroke-width="2.6" rx="11.67" ry="35.14"/><ellipse cx="1669.59" cy="1472.74" fill="#fdd504" stroke="#000" stroke-miterlimit="10" stroke-width="2.6" rx="5.85" ry="26.75"/><ellipse cx="1544.62" cy="1472.74" fill="#fdd504" stroke="#000" stroke-miterlimit="10" stroke-width="2.6" rx="5.26" ry="18.08"/><ellipse cx="1479.84" cy="1472.74" fill="#fdd504" stroke="#000" stroke-miterlimit="10" stroke-width="2.6" rx="5.19" ry="10.24"/><path fill="#2f387e" stroke="#000" stroke-miterlimit="10" stroke-width="2.6" d="M1560.93,1459.28l-24.87,1.15-57.22,2.64c2.63,1.86,4.43,5.49,4.43,9.67s-1.8,7.82-4.43,9.67l57.22,2.64,24.87,1.15a25.62,25.62,0,0,0,0-26.92Z"/><ellipse cx="1561.71" cy="1472.74" fill="#fdd504" stroke="#000" stroke-miterlimit="10" stroke-width="2.6" rx="5.95" ry="13.46"/><path fill="#2f387e" stroke="#000" stroke-miterlimit="10" stroke-width="2.6" d="M1687.63,1449l-43.88,2-101,4.66c4.66,3.28,7.82,9.69,7.82,17.07s-3.16,13.79-7.82,17.07l101,4.66,43.88,2a45.25,45.25,0,0,0,0-47.52Z"/><path fill="#2f387e" d="M1828.57,1437.6l-48.79,3-112.28,6.89c5.18,4.86,8.69,14.35,8.69,25.26s-3.51,20.4-8.69,25.26l112.28,6.89,48.79,3c4.66-9.46,7.49-21.73,7.49-35.15S1833.23,1447.05,1828.57,1437.6Z"/><g clip-path="url(#k)"><path fill="#111944" d="M1669.59,1505.74c16.35,1.27,36.24-46.46,36.24-46.46s62.84,45.68,94.53,48.61-69.74,33.21-69.74,33.21l-43.09-8.73"/></g><path fill="none" stroke="#000" stroke-miterlimit="10" stroke-width="2.6" d="M1828.57,1437.6l-48.79,3-112.28,6.89c5.18,4.86,8.69,14.35,8.69,25.26s-3.51,20.4-8.69,25.26l112.28,6.89,48.79,3c4.66-9.46,7.49-21.73,7.49-35.15S1833.23,1447.05,1828.57,1437.6Z"/><path fill="#1d62fc" d="M790.49,1388.81c-6.9,13-58.12,86.49-58.12,86.49s241.15-56.82,345.75,40.56S1428,1601.62,1428,1601.62l-6.43-22.84s-163,32.72-313.61-106.61C997.77,1370.28,790.49,1388.81,790.49,1388.81Z"/><path fill="none" stroke="#000" stroke-miterlimit="10" stroke-width="2.6" d="M790.49,1388.81c-6.9,13-58.12,86.49-58.12,86.49s241.15-56.82,345.75,40.56S1428,1601.62,1428,1601.62l-6.43-22.84s-163,32.72-313.61-106.61C997.77,1370.28,790.49,1388.81,790.49,1388.81Z"/><path fill="#f9c1bb" d="M1399.81,1525.51c-2.67,18.11,44.08,89.54,44.08,89.54l-109.51-8s30.84-95.49,12.53-121.23c-9.11-12.82,52.9,39.68,52.9,39.68Z"/><g clip-path="url(#l)"><path fill="#ed707b" d="M1378.72,1522.92s7.62,51.23,80.92,51.39-27.29-57.94-27.29-57.94Z"/></g><path fill="none" stroke="#000" stroke-miterlimit="10" stroke-width="2.6" d="M1399.81,1525.51c-2.67,18.11,44.08,89.54,44.08,89.54l-109.51-8s30.84-95.49,12.53-121.23c-9.11-12.82,52.9,39.68,52.9,39.68Z"/><path fill="#f9c1bb" d="M1349,1503.54c-36.49-67,39.25-102.66,59.09-96.9,23.88,6.93,61.64,67.83,41.68,114-6.5,15.07-39.56,29.47-69.31,14.82"/><path fill="none" stroke="#000" stroke-miterlimit="10" stroke-width="2.6" d="M1349,1503.54c-36.49-67,39.25-102.66,59.09-96.9,23.88,6.93,61.64,67.83,41.68,114-6.5,15.07-39.56,29.47-69.31,14.82"/><path fill="#485065" d="M1380.82,1422.44s55.82,8.22,54.88-29.77c-1-41.47-38.38-39.55-55.68-28.62-26.68,16.87-45.07-18.29-77.11,9.18-40.78,35,19.46,71.63-.4,78.06s-38.9,31,22.47,50.39c.5,5.3-11.21,9.55-21.2,8.77,0,0,66.19,28.85,61.7-10.3-2.91-25.37,5.61-33.4,17.4-26.78S1412,1434.65,1380.82,1422.44Z"/><path fill="none" stroke="#000" stroke-miterlimit="10" stroke-width="2.6" d="M1380.82,1422.44s55.82,8.22,54.88-29.77c-1-41.47-38.38-39.55-55.68-28.62-26.68,16.87-45.07-18.29-77.11,9.18-40.78,35,19.46,71.63-.4,78.06s-38.9,31,22.47,50.39c.5,5.3-11.21,9.55-21.2,8.77,0,0,66.19,28.85,61.7-10.3-2.91-25.37,5.61-33.4,17.4-26.78S1412,1434.65,1380.82,1422.44Z"/><path fill="#f9c1bb" stroke="#000" stroke-miterlimit="10" stroke-width="2.6" d="M1371,1508c-7.74-.92-15.81-6.39-20.79-15-7.25-12.5-5.17-26.86,4.65-32.07s23.67.69,30.93,13.19a32.84,32.84,0,0,1,3.39,8.18"/><path fill="#f9c1bb" d="M1531.66,1426.61c15.21-7,19.16,44.79,19.16,44.79s12.69-28.34,26.78-18c0,0,14.13-3.06,18.83-.2,0,0-21.56,7.87-8.22,24.89s30,19,28.47,40,54.38,224.54-5.74,230.26-232.22-54.74-232.22-54.74l80.42-67,9.62-8.17s97.84,58.82,100.1,56.37,21-131.19,13.52-145.66-39.17-23.32-45.84-51.09C1532,1459.09,1531.66,1426.61,1531.66,1426.61Z"/><g clip-path="url(#m)"><path fill="#ed707b" d="M1517.4,1644.15c10.56,13.1-21.55,82.81-.85,96.76s-47.75-14.36-47.75-14.36l8-61.7"/></g><path fill="none" stroke="#000" stroke-miterlimit="10" stroke-width="2.6" d="M1531.66,1426.61c15.21-7,19.16,44.79,19.16,44.79s12.69-28.34,26.78-18c0,0,14.13-3.06,18.83-.2,0,0-21.56,7.87-8.22,24.89s30,19,28.47,40,54.38,224.54-5.74,230.26-232.22-54.74-232.22-54.74l80.42-67,9.62-8.17s97.84,58.82,100.1,56.37,21-131.19,13.52-145.66-39.17-23.32-45.84-51.09C1532,1459.09,1531.66,1426.61,1531.66,1426.61Z"/><path fill="#f9c1bb" stroke="#000" stroke-miterlimit="10" stroke-width="2.6" d="M1696,1530.53s-12.44-45.45,2.67-61.55c6.24-6.65,4.86-31.84,10.5-33.68,7-2.29,10.14,14.71,4.51,37.38-3.46,13.89,3,29.86,6.9,42.11"/><path fill="#f9c1bb" d="M1688.34,2316.08c-6,25.34-8.43,60.16-32.31,78.62-28.56,22.07,17.28,33.06,45.09,75.15s90.18,43.58,58.62,18-48.1-81.16-38.33-115S1688.34,2316.08,1688.34,2316.08Z"/><g clip-path="url(#n)"><path fill="#ed707b" d="M1741.38,2383.7c-44.38,12.68-63-24.09-72.49-13.1s1.5-30,1.5-30l40.56,3.81,15.64,13.94"/></g><path fill="none" stroke="#000" stroke-miterlimit="10" stroke-width="2.6" d="M1688.34,2316.08c-6,25.34-8.43,60.16-32.31,78.62-28.56,22.07,17.28,33.06,45.09,75.15s90.18,43.58,58.62,18-48.1-81.16-38.33-115S1688.34,2316.08,1688.34,2316.08Z"/><path fill="#fdd504" d="M1737.61,2378.31l-73.54-25.46s19.77-208.4,63.73-267c0,0-357.34,96.94-404.69,13.52s-27-146.54-27-146.54,552.35-40.58,588.43,33.82S1737.61,2378.31,1737.61,2378.31Z"/><g clip-path="url(#o)"><path fill="none" stroke="#fff" stroke-miterlimit="10" stroke-width="2.6" d="M1691,2423.44c-47.59-56.12,89.33-382.37,50.45-370.53s-233.29,43-297.52,15.59"/></g><path fill="none" stroke="#000" stroke-miterlimit="10" stroke-width="2.6" d="M1737.61,2378.31l-73.54-25.46s19.77-208.4,63.73-267c0,0-357.34,96.94-404.69,13.52s-27-146.54-27-146.54,552.35-40.58,588.43,33.82S1737.61,2378.31,1737.61,2378.31Z"/><path fill="#f9c1bb" d="M1600.65,1958.14c4.1,30,41.65,106,25,135-19.92,34.76,30.68,30,75.57,66s108.35,14.75,66.3-1.73-81-71.51-84.72-112.27S1600.65,1958.14,1600.65,1958.14Z"/><g clip-path="url(#p)"><path fill="#ed707b" d="M1685.17,2032.09c11.93.43-51,27.9-55.31,41s-15.69-36.35-15.69-36.35"/></g><path fill="none" stroke="#000" stroke-miterlimit="10" stroke-width="2.6" d="M1600.65,1958.14c4.1,30,41.65,106,25,135-19.92,34.76,30.68,30,75.57,66s108.35,14.75,66.3-1.73-81-71.51-84.72-112.27S1600.65,1958.14,1600.65,1958.14Z"/><path fill="#fdd504" d="M1707.72,2029.47l-91.52,26.3s-42-95.16-45-156.79c0,0-52.57,226.64-181.1,231.94-164,6.76-198.38-219.48-198.38-219.48l203.51-15,1.5,31.56s146.88-260.77,210.42-250.25S1707.72,2029.47,1707.72,2029.47Z"/><g clip-path="url(#q)"><path fill="#fcb006" d="M1396.76,1928c-193.14,90.81-193.89,288.85-50.9,203.06s74.29,73.07,74.29,73.07L1129.87,2068.5l77.76-132.33"/><path fill="none" stroke="#fff" stroke-miterlimit="10" stroke-width="2.6" d="M1638.87,2020.63c-48.54-78.85-25.21-235.19-71.21-180.06s-154.43,338.58-275.92,209"/><path fill="none" stroke="#fff" stroke-miterlimit="10" stroke-width="2.6" d="M1315,2009.38c59.16,21.13,37.36,65.08,37.36,65.08"/></g><path fill="none" stroke="#000" stroke-miterlimit="10" stroke-width="2.6" d="M1707.72,2029.47l-91.52,26.3s-42-95.16-45-156.79c0,0-52.57,226.64-181.1,231.94-164,6.76-198.38-219.48-198.38-219.48l203.51-15,1.5,31.56s146.88-260.77,210.42-250.25S1707.72,2029.47,1707.72,2029.47Z"/><path fill="#1a80fd" stroke="#000" stroke-miterlimit="10" stroke-width="2.6" d="M1420.15,1595.05l-6.06-16.7s-73.76-33.58-73.39-32.3,1.87,29.46,1.87,29.46Z"/><path fill="#fff" d="M1523.31,1640.22l-40.58,105.13-41.51-6.51s.27,84.65-13.26,149.62c0,0-115.58,135-244.71,101.14,0,0-30.67-354.85,160.21-416.48l72.84,15.21Z"/><g clip-path="url(#r)"><path fill="#d6dcf2" d="M1508.8,1784.08l-67.58-45.24-44.11-7.39s46.78,162.45-105.27,263.58c-116.71,77.63,221.7-123.8,221.7-123.8Z"/><polyline fill="#1a80fd" stroke="#000" stroke-miterlimit="10" stroke-width="2.6" points="1499.89 1620.8 1455.35 1752.65 1506.59 1760.1 1544.62 1625.87"/></g><path fill="none" stroke="#000" stroke-miterlimit="10" stroke-width="2.6" d="M1523.31,1640.22l-40.58,105.13-41.51-6.51s.27,84.65-13.26,149.62c0,0-115.58,135-244.71,101.14,0,0-30.67-354.85,160.21-416.48l72.84,15.21Z"/><path fill="#1a80fd" d="M768.49,1548.49l-60.3,91.73S897.42,1553,1130.58,1613s304.89-18.87,304.89-18.87,2.7-20.57-16.83-21.13c0,0-11.93,38.21-194.94,11S991.33,1512.84,768.49,1548.49Z"/><g clip-path="url(#s)"><polygon fill="#1a80fd" stroke="#000" stroke-miterlimit="10" stroke-width="2.6" points="1335.99 1704.26 1312.62 1701.22 1445.37 1577.02 1468.74 1580.06 1335.99 1704.26"/></g><path fill="none" stroke="#000" stroke-miterlimit="10" stroke-width="2.6" d="M768.49,1548.49l-60.3,91.73S897.42,1553,1130.58,1613s304.89-18.87,304.89-18.87,2.7-20.57-16.83-21.13c0,0-11.93,38.21-194.94,11S991.33,1512.84,768.49,1548.49Z"/><line x1="1378.72" x2="1466.07" y1="1729.36" y2="1742.74" fill="#2f387e" stroke="#000" stroke-miterlimit="10" stroke-width="2.6"/><path fill="#1a80fd" stroke="#000" stroke-miterlimit="10" stroke-width="2.6" d="M1378.49,1826.39l-10.41-5.07s-21,54.94-54.84,52.4l10.5,13.53S1367.68,1876.26,1378.49,1826.39Z"/><circle cx="1424.62" cy="1774.99" r="3.64" fill="#1a80fd" stroke="#000" stroke-miterlimit="10" stroke-width="2.6"/><circle cx="1418.75" cy="1840.57" r="3.64" fill="#1a80fd" stroke="#000" stroke-miterlimit="10" stroke-width="2.6"/><path fill="#fdd504" stroke="#000" stroke-miterlimit="10" stroke-width="2.6" d="M1707.72,1980.64c6.64,10.14,4.53,49.87,4.53,49.87s-79,32.11-101,30c0,0-14.68-41.88-13.89-52.84C1597.36,2007.67,1656.28,2004.73,1707.72,1980.64Z"/><path fill="#fdd504" stroke="#000" stroke-miterlimit="10" stroke-width="2.6" d="M1765.92,2342.86c-1.83,11.57-28.29,41.26-28.29,41.26s-68.59-16.78-82.32-30.62c0,0,3.22-42.84,10.67-50.93C1666,2302.57,1715.5,2333,1765.92,2342.86Z"/><rect width="11.66" height="21.5" x="1423.22" y="1444.15" rx="5.44" transform="rotate(-9.69 1429.267 1455.058)"/><path d="M1429.07,1424.21c-17.49,2.19-20.12,10-9.1,9.38S1440.49,1422.77,1429.07,1424.21Z"/><path fill="#f9c1bb" stroke="#000" stroke-miterlimit="10" stroke-width="2.6" d="M1444.64,1452.8c23.45,10,19.44,33.55,3.87,30.76"/><ellipse cx="1410.53" cy="1472.29" fill="#ed707b" opacity=".27" rx="13.27" ry="9.79"/><path fill="#f9c1bb" stroke="#ba424d" stroke-miterlimit="10" stroke-width="2.6" d="M1418.49,1485.26a21.29,21.29,0,0,0,20.52,7"/><path fill="none" stroke="#000" stroke-miterlimit="10" stroke-width="2.6" d="M1372.66,1481.21a5.6,5.6,0,1,0-8.17,7.33"/><path fill="none" stroke="#000" stroke-miterlimit="10" stroke-width="2.6" d="M1352.6,1403.78a12.11,12.11,0,0,1-11.8,5"/><path fill="none" stroke="#000" stroke-miterlimit="10" stroke-width="2.6" d="M1285,1934.51a157.94,157.94,0,0,1-30.41,3.5"/><path fill="none" stroke="#000" stroke-miterlimit="10" stroke-width="2.6" d="M975.66,1559.31a171.42,171.42,0,0,0-38.88,3.38"/><path fill="none" stroke="#000" stroke-miterlimit="10" stroke-width="2.6" d="M849,1425.49a59.45,59.45,0,0,0-22-1.32"/><path fill="none" stroke="#000" stroke-miterlimit="10" stroke-width="2.6" d="M1571.59,1900.36l3.71-16.5"/><path fill="none" stroke="#000" stroke-miterlimit="10" stroke-width="2.6" d="M1820,2037.27a14.39,14.39,0,0,1-2.55,10.13"/><path fill="none" stroke="#000" stroke-miterlimit="10" stroke-width="2.6" d="M1412.13,1977.76l-2.63,12.65"/><path fill="none" stroke="#000" stroke-miterlimit="10" stroke-width="2.6" d="M1699.15,2409.58l-1.69,1.69"/><path fill="#1ab995" d="M2969.62,1751.3c-112,169-185.61,553.31-67.21,699.93l117.9,7.18s77.93-176.46-8.47-363.17C2912.82,1881.27,2969.62,1751.3,2969.62,1751.3Z"/><g clip-path="url(#t)"><path fill="#0fa379" d="M3014.91,1718l-45.29,33.3s-86.8,262.56-12.65,383.94-37.08,358.66-37.08,358.66l288.45,7.45V1985.63Z"/><path fill="#0fa379" d="M2828.51,1967.51c-87.83,88.78-66.73,146.11-5.32,222.18,124.1,153.72,106,337.63,106,337.63H2719l-145.21-240.66Z"/></g><path fill="none" stroke="#000" stroke-miterlimit="10" stroke-width="2.6" d="M2969.62,1751.3c-112,169-185.61,553.31-67.21,699.93l117.9,7.18s77.93-176.46-8.47-363.17C2912.82,1881.27,2969.62,1751.3,2969.62,1751.3Z"/><path fill="#1ab995" d="M2786.14,2036.24s-89.61,283.28,17.07,427.41h138.25S2762.67,2147.23,2786.14,2036.24Z"/><g clip-path="url(#u)"><path fill="#0fa379" d="M2638.05,2237.69c3.76,135.3,167.06,62.69,190.46,165S3005,2514.54,3005,2514.54l-254.06,40.78Z"/></g><path fill="none" stroke="#000" stroke-miterlimit="10" stroke-width="2.6" d="M2786.14,2036.24s-89.61,283.28,17.07,427.41h138.25S2762.67,2147.23,2786.14,2036.24Z"/><path fill="#1ab995" d="M3035.76,1948.44s-4.73,400.9-70.87,502.79h98.6S3155.23,2162.14,3035.76,1948.44Z"/><g clip-path="url(#v)"><path fill="#0fa379" d="M3132,1969.91,3052.56,1982s43.13,202,9.47,316.61-124.42,211.13-114.74,218.33,149.85,26.24,149.85,26.24l66.73-91.95Z"/></g><path fill="none" stroke="#000" stroke-miterlimit="10" stroke-width="2.6" d="M3035.76,1948.44s-4.73,400.9-70.87,502.79h98.6S3155.23,2162.14,3035.76,1948.44Z"/><path fill="#1ab995" stroke="#000" stroke-miterlimit="10" stroke-width="2.6" d="M3091,2052.81s99.3,291.56-11.15,410.84l-74.84-5.24S3131.52,2245,3091,2052.81Z"/><path fill="#f08059" d="M3138.08,2484.45l-196.55-9.31h-.13l-196.57,9.31s-20.32,219.22,79.36,257.62h234.54C3158.41,2703.67,3138.08,2484.45,3138.08,2484.45Z"/><g clip-path="url(#w)"><path fill="#d85e3d" d="M2883.89,2482.43c305.46,72.45,282,229.48-59.7,259.64s390.61,96.73,390.61,96.73l21.54-219.31-54.82-193.84-297.63,56.78"/></g><path fill="none" stroke="#000" stroke-miterlimit="10" stroke-width="2.6" d="M3138.08,2484.45l-196.55-9.31h-.13l-196.57,9.31s-20.32,219.22,79.36,257.62h234.54C3158.41,2703.67,3138.08,2484.45,3138.08,2484.45Z"/><rect width="444.83" height="54.96" x="2719.04" y="2447.65" fill="#f08059" stroke="#000" stroke-miterlimit="10" stroke-width="2.6"/><path fill="none" stroke="#000" stroke-miterlimit="10" stroke-width="2.6" d="M2847.67,2646.75a188.08,188.08,0,0,0,62.66,11.77"/><path fill="none" stroke="#000" stroke-miterlimit="10" stroke-width="2.6" d="M2892.84,2145.55a152.24,152.24,0,0,0-10,56.73"/><path fill="none" stroke="#000" stroke-miterlimit="10" stroke-width="2.6" d="M3035.56,2296.28a17.22,17.22,0,0,1-1.75,11.8"/><path fill="none" stroke="#000" stroke-miterlimit="10" stroke-width="2.6" d="M3108.42,2266.93l-2.06,17.62"/><path fill="none" stroke="#000" stroke-miterlimit="10" stroke-width="2.6" d="M2777.06,2286.48a41.3,41.3,0,0,0,6.05,21.5"/></svg>